<svg width="86" height="159" viewBox="0 0 86 159" fill="none" xmlns="http://www.w3.org/2000/svg">
<path d="M6.70392 6.74317C8.33408 6.74317 9.65558 5.42166 9.65558 3.7915C9.65558 2.16135 8.33408 0.839844 6.70392 0.839844C5.07376 0.839844 3.75226 2.16135 3.75226 3.7915C3.75226 5.42166 5.07376 6.74317 6.70392 6.74317Z" fill="#F3C977"/>
<path d="M25.6072 6.74317C27.2374 6.74317 28.5589 5.42166 28.5589 3.7915C28.5589 2.16135 27.2374 0.839844 25.6072 0.839844C23.9771 0.839844 22.6556 2.16135 22.6556 3.7915C22.6556 5.42166 23.9771 6.74317 25.6072 6.74317Z" fill="#F3C977"/>
<path d="M44.5106 6.74317C46.1407 6.74317 47.4622 5.42166 47.4622 3.7915C47.4622 2.16135 46.1407 0.839844 44.5106 0.839844C42.8804 0.839844 41.5589 2.16135 41.5589 3.7915C41.5589 5.42166 42.8804 6.74317 44.5106 6.74317Z" fill="#F3C977"/>
<path d="M63.4139 0.839844C61.7988 0.839844 60.4622 2.17645 60.4622 3.7915C60.4622 5.40656 61.7988 6.74317 63.4139 6.74317C65.0289 6.74317 66.3655 5.40656 66.3655 3.7915C66.3655 2.17645 65.0846 0.839844 63.4139 0.839844Z" fill="#F3C977"/>
<path d="M82.3172 6.74317C83.9474 6.74317 85.2689 5.42166 85.2689 3.7915C85.2689 2.16135 83.9474 0.839844 82.3172 0.839844C80.687 0.839844 79.3655 2.16135 79.3655 3.7915C79.3655 5.42166 80.687 6.74317 82.3172 6.74317Z" fill="#F3C977"/>
<path d="M6.70392 25.6465C8.33408 25.6465 9.65558 24.325 9.65558 22.6948C9.65558 21.0647 8.33408 19.7432 6.70392 19.7432C5.07376 19.7432 3.75226 21.0647 3.75226 22.6948C3.75226 24.325 5.07376 25.6465 6.70392 25.6465Z" fill="#F3C977"/>
<path d="M25.6072 25.6465C27.2374 25.6465 28.5589 24.325 28.5589 22.6948C28.5589 21.0647 27.2374 19.7432 25.6072 19.7432C23.9771 19.7432 22.6556 21.0647 22.6556 22.6948C22.6556 24.325 23.9771 25.6465 25.6072 25.6465Z" fill="#F3C977"/>
<path d="M44.5106 25.6465C46.1407 25.6465 47.4622 24.325 47.4622 22.6948C47.4622 21.0647 46.1407 19.7432 44.5106 19.7432C42.8804 19.7432 41.5589 21.0647 41.5589 22.6948C41.5589 24.325 42.8804 25.6465 44.5106 25.6465Z" fill="#F3C977"/>
<path d="M63.4139 19.7432C61.7988 19.7432 60.4622 21.0798 60.4622 22.6948C60.4622 24.3099 61.7988 25.6465 63.4139 25.6465C65.0289 25.6465 66.3655 24.3099 66.3655 22.6948C66.3655 21.0798 65.0846 19.7432 63.4139 19.7432Z" fill="#F3C977"/>
<path d="M82.3172 25.6465C83.9474 25.6465 85.2689 24.325 85.2689 22.6948C85.2689 21.0647 83.9474 19.7432 82.3172 19.7432C80.687 19.7432 79.3655 21.0647 79.3655 22.6948C79.3655 24.325 80.687 25.6465 82.3172 25.6465Z" fill="#F3C977"/>
<path d="M6.70392 44.5498C8.33408 44.5498 9.65558 43.2283 9.65558 41.5981C9.65558 39.968 8.33408 38.6465 6.70392 38.6465C5.07376 38.6465 3.75226 39.968 3.75226 41.5981C3.75226 43.2283 5.07376 44.5498 6.70392 44.5498Z" fill="#F3C977"/>
<path d="M25.6072 44.5498C27.2374 44.5498 28.5589 43.2283 28.5589 41.5981C28.5589 39.968 27.2374 38.6465 25.6072 38.6465C23.9771 38.6465 22.6556 39.968 22.6556 41.5981C22.6556 43.2283 23.9771 44.5498 25.6072 44.5498Z" fill="#F3C977"/>
<path d="M44.5106 44.5498C46.1407 44.5498 47.4622 43.2283 47.4622 41.5981C47.4622 39.968 46.1407 38.6465 44.5106 38.6465C42.8804 38.6465 41.5589 39.968 41.5589 41.5981C41.5589 43.2283 42.8804 44.5498 44.5106 44.5498Z" fill="#F3C977"/>
<path d="M63.4139 38.6465C61.7988 38.6465 60.4622 39.9831 60.4622 41.5981C60.4622 43.2132 61.7988 44.5498 63.4139 44.5498C65.0289 44.5498 66.3655 43.2132 66.3655 41.5981C66.3655 39.9831 65.0846 38.6465 63.4139 38.6465Z" fill="#F3C977"/>
<path d="M82.3172 44.5498C83.9474 44.5498 85.2689 43.2283 85.2689 41.5981C85.2689 39.968 83.9474 38.6465 82.3172 38.6465C80.687 38.6465 79.3655 39.968 79.3655 41.5981C79.3655 43.2283 80.687 44.5498 82.3172 44.5498Z" fill="#F3C977"/>
<path d="M6.70392 63.5088C8.33408 63.5088 9.65558 62.1873 9.65558 60.5571C9.65558 58.927 8.33408 57.6055 6.70392 57.6055C5.07376 57.6055 3.75226 58.927 3.75226 60.5571C3.75226 62.1873 5.07376 63.5088 6.70392 63.5088Z" fill="#F3C977"/>
<path d="M25.6072 63.5088C27.2374 63.5088 28.5589 62.1873 28.5589 60.5571C28.5589 58.927 27.2374 57.6055 25.6072 57.6055C23.9771 57.6055 22.6556 58.927 22.6556 60.5571C22.6556 62.1873 23.9771 63.5088 25.6072 63.5088Z" fill="#F3C977"/>
<path d="M44.5106 63.5088C46.1407 63.5088 47.4622 62.1873 47.4622 60.5571C47.4622 58.927 46.1407 57.6055 44.5106 57.6055C42.8804 57.6055 41.5589 58.927 41.5589 60.5571C41.5589 62.1873 42.8804 63.5088 44.5106 63.5088Z" fill="#F3C977"/>
<path d="M63.4139 57.5498C61.7988 57.5498 60.4622 58.8864 60.4622 60.5015C60.4622 62.1165 61.7988 63.4531 63.4139 63.4531C65.0289 63.4531 66.3655 62.1165 66.3655 60.5015C66.3655 58.8864 65.0846 57.5498 63.4139 57.5498Z" fill="#F3C977"/>
<path d="M82.3172 63.5088C83.9474 63.5088 85.2689 62.1873 85.2689 60.5571C85.2689 58.927 83.9474 57.6055 82.3172 57.6055C80.687 57.6055 79.3655 58.927 79.3655 60.5571C79.3655 62.1873 80.687 63.5088 82.3172 63.5088Z" fill="#F3C977"/>
<path d="M6.70392 82.4121C8.33408 82.4121 9.65558 81.0906 9.65558 79.4604C9.65558 77.8303 8.33408 76.5088 6.70392 76.5088C5.07376 76.5088 3.75226 77.8303 3.75226 79.4604C3.75226 81.0906 5.07376 82.4121 6.70392 82.4121Z" fill="#F3C977"/>
<path d="M25.6072 82.4121C27.2374 82.4121 28.5589 81.0906 28.5589 79.4604C28.5589 77.8303 27.2374 76.5088 25.6072 76.5088C23.9771 76.5088 22.6556 77.8303 22.6556 79.4604C22.6556 81.0906 23.9771 82.4121 25.6072 82.4121Z" fill="#F3C977"/>
<path d="M44.5106 82.4121C46.1407 82.4121 47.4622 81.0906 47.4622 79.4604C47.4622 77.8303 46.1407 76.5088 44.5106 76.5088C42.8804 76.5088 41.5589 77.8303 41.5589 79.4604C41.5589 81.0906 42.8804 82.4121 44.5106 82.4121Z" fill="#F3C977"/>
<path d="M63.4139 76.5088C61.7988 76.5088 60.4622 77.8454 60.4622 79.4604C60.4622 81.0755 61.7988 82.4121 63.4139 82.4121C65.0289 82.4121 66.3655 81.0755 66.3655 79.4604C66.3655 77.7897 65.0846 76.5088 63.4139 76.5088Z" fill="#F3C977"/>
<path d="M82.3172 82.4121C83.9474 82.4121 85.2689 81.0906 85.2689 79.4604C85.2689 77.8303 83.9474 76.5088 82.3172 76.5088C80.687 76.5088 79.3655 77.8303 79.3655 79.4604C79.3655 81.0906 80.687 82.4121 82.3172 82.4121Z" fill="#F3C977"/>
<path d="M6.70392 101.315C8.33408 101.315 9.65558 99.9939 9.65558 98.3638C9.65558 96.7336 8.33408 95.4121 6.70392 95.4121C5.07376 95.4121 3.75226 96.7336 3.75226 98.3638C3.75226 99.9939 5.07376 101.315 6.70392 101.315Z" fill="#F3C977"/>
<path d="M25.6072 101.315C27.2374 101.315 28.5589 99.9939 28.5589 98.3638C28.5589 96.7336 27.2374 95.4121 25.6072 95.4121C23.9771 95.4121 22.6556 96.7336 22.6556 98.3638C22.6556 99.9939 23.9771 101.315 25.6072 101.315Z" fill="#F3C977"/>
<path d="M44.5106 101.315C46.1407 101.315 47.4622 99.9939 47.4622 98.3638C47.4622 96.7336 46.1407 95.4121 44.5106 95.4121C42.8804 95.4121 41.5589 96.7336 41.5589 98.3638C41.5589 99.9939 42.8804 101.315 44.5106 101.315Z" fill="#F3C977"/>
<path d="M63.4139 95.4121C61.7988 95.4121 60.4622 96.7487 60.4622 98.3638C60.4622 99.9788 61.7988 101.315 63.4139 101.315C65.0289 101.315 66.3655 99.9788 66.3655 98.3638C66.3655 96.693 65.0846 95.4121 63.4139 95.4121Z" fill="#F3C977"/>
<path d="M82.3172 101.315C83.9474 101.315 85.2689 99.9939 85.2689 98.3638C85.2689 96.7336 83.9474 95.4121 82.3172 95.4121C80.687 95.4121 79.3655 96.7336 79.3655 98.3638C79.3655 99.9939 80.687 101.315 82.3172 101.315Z" fill="#F3C977"/>
<path d="M6.70392 120.219C8.33408 120.219 9.65558 118.897 9.65558 117.267C9.65558 115.637 8.33408 114.315 6.70392 114.315C5.07376 114.315 3.75226 115.637 3.75226 117.267C3.75226 118.897 5.07376 120.219 6.70392 120.219Z" fill="#F3C977"/>
<path d="M25.6072 120.219C27.2374 120.219 28.5589 118.897 28.5589 117.267C28.5589 115.637 27.2374 114.315 25.6072 114.315C23.9771 114.315 22.6556 115.637 22.6556 117.267C22.6556 118.897 23.9771 120.219 25.6072 120.219Z" fill="#F3C977"/>
<path d="M44.5106 120.219C46.1407 120.219 47.4622 118.897 47.4622 117.267C47.4622 115.637 46.1407 114.315 44.5106 114.315C42.8804 114.315 41.5589 115.637 41.5589 117.267C41.5589 118.897 42.8804 120.219 44.5106 120.219Z" fill="#F3C977"/>
<path d="M63.4139 114.315C61.7988 114.315 60.4622 115.652 60.4622 117.267C60.4622 118.882 61.7988 120.219 63.4139 120.219C65.0289 120.219 66.3655 118.882 66.3655 117.267C66.3655 115.652 65.0846 114.315 63.4139 114.315Z" fill="#F3C977"/>
<path d="M82.3172 120.219C83.9474 120.219 85.2689 118.897 85.2689 117.267C85.2689 115.637 83.9474 114.315 82.3172 114.315C80.687 114.315 79.3655 115.637 79.3655 117.267C79.3655 118.897 80.687 120.219 82.3172 120.219Z" fill="#F3C977"/>
<path d="M6.70392 139.122C8.33408 139.122 9.65558 137.801 9.65558 136.17C9.65558 134.54 8.33408 133.219 6.70392 133.219C5.07376 133.219 3.75226 134.54 3.75226 136.17C3.75226 137.801 5.07376 139.122 6.70392 139.122Z" fill="#F3C977"/>
<path d="M25.6072 139.122C27.2374 139.122 28.5589 137.801 28.5589 136.17C28.5589 134.54 27.2374 133.219 25.6072 133.219C23.9771 133.219 22.6556 134.54 22.6556 136.17C22.6556 137.801 23.9771 139.122 25.6072 139.122Z" fill="#F3C977"/>
<path d="M44.5106 139.122C46.1407 139.122 47.4622 137.801 47.4622 136.17C47.4622 134.54 46.1407 133.219 44.5106 133.219C42.8804 133.219 41.5589 134.54 41.5589 136.17C41.5589 137.801 42.8804 139.122 44.5106 139.122Z" fill="#F3C977"/>
<path d="M63.4139 133.219C61.7988 133.219 60.4622 134.555 60.4622 136.17C60.4622 137.785 61.7988 139.122 63.4139 139.122C65.0289 139.122 66.3655 137.785 66.3655 136.17C66.3655 134.555 65.0846 133.219 63.4139 133.219Z" fill="#F3C977"/>
<path d="M82.3172 139.122C83.9474 139.122 85.2689 137.801 85.2689 136.17C85.2689 134.54 83.9474 133.219 82.3172 133.219C80.687 133.219 79.3655 134.54 79.3655 136.17C79.3655 137.801 80.687 139.122 82.3172 139.122Z" fill="#F3C977"/>
<path d="M6.70392 158.025C8.33408 158.025 9.65558 156.704 9.65558 155.074C9.65558 153.444 8.33408 152.122 6.70392 152.122C5.07376 152.122 3.75226 153.444 3.75226 155.074C3.75226 156.704 5.07376 158.025 6.70392 158.025Z" fill="#F3C977"/>
<path d="M25.6072 158.025C27.2374 158.025 28.5589 156.704 28.5589 155.074C28.5589 153.444 27.2374 152.122 25.6072 152.122C23.9771 152.122 22.6556 153.444 22.6556 155.074C22.6556 156.704 23.9771 158.025 25.6072 158.025Z" fill="#F3C977"/>
<path d="M44.5106 158.025C46.1407 158.025 47.4622 156.704 47.4622 155.074C47.4622 153.444 46.1407 152.122 44.5106 152.122C42.8804 152.122 41.5589 153.444 41.5589 155.074C41.5589 156.704 42.8804 158.025 44.5106 158.025Z" fill="#F3C977"/>
<path d="M63.4139 152.122C61.7988 152.122 60.4622 153.459 60.4622 155.074C60.4622 156.689 61.7988 158.025 63.4139 158.025C65.0289 158.025 66.3655 156.689 66.3655 155.074C66.3655 153.459 65.0846 152.122 63.4139 152.122Z" fill="#F3C977"/>
<path d="M82.3172 158.025C83.9474 158.025 85.2689 156.704 85.2689 155.074C85.2689 153.444 83.9474 152.122 82.3172 152.122C80.687 152.122 79.3655 153.444 79.3655 155.074C79.3655 156.704 80.687 158.025 82.3172 158.025Z" fill="#F3C977"/>
</svg>
